<svg height="512pt" viewBox="-41 0 512 512" width="512pt" xmlns="http://www.w3.org/2000/svg"><path d="m238.980469 89.714844c0-4.140625-3.355469-7.5-7.5-7.5h-33.328125c-4.144532 0-7.5 3.359375-7.5 7.5v59.996094c0 4.140624 3.355468 7.5 7.5 7.5h33.328125c4.144531 0 7.5-3.359376 7.5-7.5zm-15 52.496094h-18.328125v-44.996094h18.328125zm0 0"/><path d="m238.980469 227.484375c0-4.140625-3.355469-7.5-7.5-7.5h-33.328125c-4.144532 0-7.5 3.359375-7.5 7.5v59.996094c0 4.140625 3.355468 7.5 7.5 7.5h33.328125c4.144531 0 7.5-3.359375 7.5-7.5zm-15 52.496094h-18.328125v-44.996094h18.328125zm0 0"/><path d="m231.480469 357.75h-33.328125c-4.144532 0-7.5 3.359375-7.5 7.5v59.996094c0 4.144531 3.355468 7.5 7.5 7.5h33.328125c4.144531 0 7.5-3.355469 7.5-7.5v-59.996094c0-4.140625-3.355469-7.5-7.5-7.5zm-7.5 59.996094h-18.328125v-44.996094h18.328125zm0 0"/><path d="m419.132812 194.722656c5.789063 0 10.5-4.710937 10.5-10.5v-26.660156c0-5.789062-4.710937-10.5-10.5-10.5h-8.316406v-81.902344c0-7.445312-6.054687-13.5-13.5-13.5h-102.5c-4.140625 0-7.5 3.359375-7.5 7.5s3.359375 7.5 7.5 7.5h101v80.402344h-12.847656v-30.863281c0-6.339844-5.160156-11.5-11.5-11.5h-47.804688c-6.339843 0-11.5 5.160156-11.5 11.5v30.863281h-9.832031c-5.792969 0-10.5 4.710938-10.5 10.5v26.660156c0 5.789063 4.707031 10.5 10.5 10.5h93.484375v83.628906h-12.847656v-30.863281c0-6.34375-5.160156-11.5-11.5-11.5h-47.804688c-6.339843 0-11.5 5.15625-11.5 11.5v30.863281h-9.832031c-5.792969 0-10.5 4.707032-10.5 10.5v26.65625c0 5.792969 4.707031 10.5 10.5 10.5h93.484375v83.628907h-12.847656v-30.863281c0-6.339844-5.160156-11.5-11.5-11.5h-47.804688c-6.339843 0-11.5 5.160156-11.5 11.5v30.863281h-9.832031c-5.792969 0-10.5 4.710937-10.5 10.5v26.660156c0 5.789063 4.707031 10.5 10.5 10.5h93.484375v39.703125h-125.171875v-71.75c0-4.144531-3.355469-7.5-7.5-7.5-4.140625 0-7.5 3.355469-7.5 7.5v71.75h-81.660156v-377.371094c0-4.140625-3.355469-7.5-7.5-7.5-4.140625 0-7.5 3.359375-7.5 7.5v377.371094h-125.167969v-39.703125h93.484375c5.792969 0 10.5-4.710937 10.5-10.5v-26.660156c0-5.789063-4.707031-10.5-10.5-10.5h-9.832031v-30.863281c0-6.339844-5.160156-11.5-11.5-11.5h-47.804688c-6.34375 0-11.5 5.160156-11.5 11.5v30.863281h-12.847656v-83.625h93.484375c5.792969 0 10.5-4.710938 10.5-10.5v-26.660157c0-5.792968-4.707031-10.5-10.5-10.5h-9.832031v-30.863281c0-6.34375-5.160156-11.5-11.5-11.5h-47.804688c-6.34375 0-11.5 5.15625-11.5 11.5v30.863281h-12.847656v-83.628906h93.484375c5.792969 0 10.5-4.710937 10.5-10.5v-26.660156c0-5.789062-4.707031-10.5-10.5-10.5h-9.832031v-30.863281c0-6.339844-5.160156-11.5-11.5-11.5h-47.804688c-6.34375 0-11.5 5.160156-11.5 11.5v30.863281h-12.847656v-80.402344h125.167969v22.96875c0 4.144532 3.359375 7.5 7.5 7.5 4.144531 0 7.5-3.355468 7.5-7.5v-74.628906h81.660156v380.25c0 4.140625 3.359375 7.5 7.5 7.5s7.5-3.359375 7.5-7.5v-383.75c0-6.339844-5.160156-11.5-11.5-11.5h-88.660156c-6.339844 0-11.5 5.160156-11.5 11.5v40.160156h-126.667969c-7.445312 0-13.5 6.054688-13.5 13.5v81.902344h-8.316406c-5.789062 0-10.5 4.710938-10.5 10.5v26.660156c0 5.789063 4.710938 10.5 10.5 10.5h8.316406v83.628906h-8.316406c-5.789062 0-10.5 4.707032-10.5 10.5v26.65625c0 5.792969 4.710938 10.5 10.5 10.5h8.316406v83.628907h-8.316406c-5.789062 0-10.5 4.710937-10.5 10.5v26.660156c0 5.789063 4.710938 10.5 10.5 10.5h8.316406v41.203125c0 7.445312 6.054688 13.5 13.5 13.5h365c7.445313 0 13.5-6.054688 13.5-13.5v-41.203125h8.316406c5.789063 0 10.5-4.710937 10.5-10.5v-26.660156c0-5.789063-4.710937-10.5-10.5-10.5h-8.316406v-83.625h8.316406c5.789063 0 10.5-4.710938 10.5-10.5v-26.660157c0-5.792968-4.710937-10.5-10.5-10.5h-8.316406v-83.628906zm-357.46875-75.023437h40.804688v27.363281h-40.804688zm-46.664062 42.363281h107.800781v17.660156c-17.863281 0-95.839843 0-107.800781 0zm46.664062 88.925781h40.804688v27.363281h-40.804688zm-46.664062 42.363281h107.800781v17.65625h-107.800781zm46.664062 88.921876h40.804688v27.363281h-40.804688zm-46.664062 42.363281h107.800781v17.660156h-107.800781zm312.164062-42.363281h40.804688v27.363281h-40.804688zm87.46875 60.023437h-107.804687v-17.660156h107.804687zm-87.46875-191.308594h40.804688v27.363281h-40.804688zm87.46875 60.019531h-107.804687v-17.65625h107.804687zm-87.46875-191.308593h40.804688v27.363281h-40.804688zm-20.335937 42.363281h107.804687v17.660156c-13.652343 0-85.300781 0-107.804687 0zm0 0"/></svg>