<svg id="Expand" enable-background="new 0 0 96 96" height="512" viewBox="0 0 96 96" width="512" xmlns="http://www.w3.org/2000/svg"><path d="m93.992 30.959c-.005-.113-.023-.226-.067-.334-.002-.006-.003-.012-.005-.018v-.001l-6-14c-.158-.368-.52-.606-.92-.606h-35.529l-2.471-4.268v-7.732h10v5h-7c-.552 0-1 .447-1 1s.448 1 1 1h8c.552 0 1-.447 1-1v-7c0-.553-.448-1-1-1h-12c-.552 0-1 .447-1 1v8.732l-2.471 4.268h-35.529c-.4 0-.762.238-.919.606l-6 14c-.054.127-.074.261-.074.394h-.007v34c0 .553.448 1 1 1h3.35c.265.746.672 1.422 1.19 2h-.54c-2.757 0-5 2.243-5 5v8c0 .553.448 1 1 1h3v11c0 .553.448 1 1 1h10c.552 0 1-.447 1-1v-11h6v11c0 .553.448 1 1 1h10c.552 0 1-.447 1-1v-5h4.08c.488 3.386 3.401 6 6.92 6s6.432-2.614 6.92-6h16.16c.488 3.386 3.401 6 6.92 6s6.432-2.614 6.92-6h9.08c.552 0 1-.447 1-1v-56c0-.015-.008-.027-.008-.041zm-7.651-12.959 5.143 12h-31.908l-6.947-12zm-37.341-2.277 4.213 7.277h-4.213zm-2 7.277h-4.213l4.213-7.277zm-5.371 2h5.371v5h-8.266zm7.371 0h5.371l2.895 5h-8.266zm-39.341-7h33.712l-6.947 12h-31.907zm-5.659 46v-32h32v28c0 .553.448 1 1 1s1-.447 1-1v-28h21 33v20.026c-.838-.635-1.87-1.026-3-1.026h-1v-5c0-.553-.448-1-1-1h-4c-.552 0-1 .447-1 1v5h-3v-5c0-.553-.448-1-1-1h-4c-.552 0-1 .447-1 1v5h-3v-5c0-.553-.448-1-1-1h-4c-.552 0-1 .447-1 1v5h-4v-16c0-.553-.448-1-1-1s-1 .447-1 1v16h-8c-4.962 0-9 4.037-9 9v9.056c-.802.089-1.586.286-2.325.582-.915-1-2.217-1.638-3.675-1.638h-.54c.519-.578.926-1.254 1.19-2h2.35c.552 0 1-.447 1-1s-.448-1-1-1h-2c0-3.309-2.691-6-6-6s-6 2.691-6 6h-6c0-3.309-2.691-6-6-6s-6 2.691-6 6zm82-13h-2v-4h2zm-9 0h-2v-4h2zm-9 0h-2v-4h2zm-25 10h7v5h-7zm-22 9.031c-.912-1.225-2.359-2.031-4-2.031h-.54c.519-.578.926-1.254 1.19-2h6.7c.265.746.672 1.422 1.19 2h-.54c-1.641 0-3.088.806-4 2.031zm5-6.031c0-2.206 1.794-4 4-4s4 1.794 4 4-1.794 4-4 4-4-1.794-4-4zm-18 0c0-2.206 1.794-4 4-4s4 1.794 4 4-1.794 4-4 4-4-1.794-4-4zm9 9c-.552 0-1 .447-1 1v18h-3v-10c0-.553-.448-1-1-1s-1 .447-1 1v10h-3v-18c0-.553-.448-1-1-1s-1 .447-1 1v6h-2v-7c0-1.654 1.346-3 3-3h10c1.654 0 3 1.346 3 3v7h-2v-6c0-.553-.448-1-1-1zm17 19h-3v-10c0-.553-.448-1-1-1s-1 .447-1 1v10h-3v-18c0-.553-.448-1-1-1s-1 .447-1 1v6h-2v-7c0-1.654 1.346-3 3-3h10c1.654 0 3 1.346 3 3v7h-2v-6c0-.553-.448-1-1-1s-1 .447-1 1zm2-10h3c.552 0 1-.447 1-1v-8c0-.566-.115-1.102-.289-1.609.726-.253 1.501-.391 2.289-.391.552 0 1-.447 1-1v-2h8c.552 0 1-.447 1-1v-7c0-.553-.448-1-1-1h-7.92c.488-3.386 3.401-6 6.92-6h39c1.654 0 3 1.346 3 3v16h-11c-.552 0-1 .447-1 1s.448 1 1 1h11v2h-7c-.552 0-1 .447-1 1s.448 1 1 1h7v3h-4c-.265 0-.52.105-.707.293l-3.614 3.614c-.892-2.84-3.548-4.907-6.679-4.907-3.519 0-6.432 2.614-6.92 6h-4.08v-18c0-.553-.448-1-1-1h-8c-.552 0-1 .447-1 1v18h-2.08c-.488-3.386-3.401-6-6.92-6s-6.432 2.614-6.92 6h-4.08zm28-6h-6v-7h6zm-6 2h6v3h-6zm-11 14c-2.757 0-5-2.243-5-5s2.243-5 5-5 5 2.243 5 5-2.243 5-5 5zm11-6v-3h6v3zm19 6c-2.757 0-5-2.243-5-5s2.243-5 5-5 5 2.243 5 5-2.243 5-5 5zm8.414-6 3-3h3.586v3z"/><path d="m18 43h4c.552 0 1-.447 1-1v-6c0-.553-.448-1-1-1h-4c-.552 0-1 .447-1 1v6c0 .553.448 1 1 1zm1-6h2v4h-2z"/><path d="m27 43h4c.552 0 1-.447 1-1v-6c0-.553-.448-1-1-1h-4c-.552 0-1 .447-1 1v6c0 .553.448 1 1 1zm1-6h2v4h-2z"/><path d="m18 53h4c.552 0 1-.447 1-1v-6c0-.553-.448-1-1-1h-4c-.552 0-1 .447-1 1v6c0 .553.448 1 1 1zm1-6h2v4h-2z"/><path d="m9 43h4c.552 0 1-.447 1-1v-6c0-.553-.448-1-1-1h-4c-.552 0-1 .447-1 1v6c0 .553.448 1 1 1zm1-6h2v4h-2z"/><path d="m9 53h4c.552 0 1-.447 1-1v-6c0-.553-.448-1-1-1h-4c-.552 0-1 .447-1 1v6c0 .553.448 1 1 1zm1-6h2v4h-2z"/><path d="m27 53h4c.552 0 1-.447 1-1v-6c0-.553-.448-1-1-1h-4c-.552 0-1 .447-1 1v6c0 .553.448 1 1 1zm1-6h2v4h-2z"/><path d="m74 43h4c.552 0 1-.447 1-1v-6c0-.553-.448-1-1-1h-4c-.552 0-1 .447-1 1v6c0 .553.448 1 1 1zm1-6h2v4h-2z"/><path d="m83 43h4c.552 0 1-.447 1-1v-6c0-.553-.448-1-1-1h-4c-.552 0-1 .447-1 1v6c0 .553.448 1 1 1zm1-6h2v4h-2z"/><path d="m65 43h4c.552 0 1-.447 1-1v-6c0-.553-.448-1-1-1h-4c-.552 0-1 .447-1 1v6c0 .553.448 1 1 1zm1-6h2v4h-2z"/><path d="m48 42c2.206 0 4-1.794 4-4s-1.794-4-4-4-4 1.794-4 4 1.794 4 4 4zm0-6c1.103 0 2 .897 2 2s-.897 2-2 2-2-.897-2-2 .897-2 2-2z"/><path d="m77 84c-1.654 0-3 1.346-3 3s1.346 3 3 3 3-1.346 3-3-1.346-3-3-3zm0 4c-.551 0-1-.448-1-1s.449-1 1-1 1 .448 1 1-.449 1-1 1z"/><path d="m47 84c-1.654 0-3 1.346-3 3s1.346 3 3 3 3-1.346 3-3-1.346-3-3-3zm0 4c-.551 0-1-.448-1-1s.449-1 1-1 1 .448 1 1-.449 1-1 1z"/><path d="m47 72h4c.552 0 1-.447 1-1s-.448-1-1-1h-4c-.552 0-1 .447-1 1s.448 1 1 1z"/><path d="m69 69h4c.552 0 1-.447 1-1v-8c0-.553-.448-1-1-1h-4c-.552 0-1 .447-1 1v8c0 .553.448 1 1 1zm1-2v-2h2v2zm2-6v2h-2v-2z"/><path d="m77 69h4c.552 0 1-.447 1-1v-8c0-.553-.448-1-1-1h-4c-.552 0-1 .447-1 1v8c0 .553.448 1 1 1zm1-2v-2h2v2zm2-6v2h-2v-2z"/><path d="m85 69h4c.552 0 1-.447 1-1v-8c0-.553-.448-1-1-1h-4c-.552 0-1 .447-1 1v8c0 .553.448 1 1 1zm1-2v-2h2v2zm2-6v2h-2v-2z"/><circle cx="73" cy="73" r="1"/><circle cx="77" cy="73" r="1"/><circle cx="77" cy="77" r="1"/><circle cx="81" cy="77" r="1"/><circle cx="69" cy="73" r="1"/></svg>