<svg version="1.1" id="Capa_1" xmlns="http://www.w3.org/2000/svg" xmlns:xlink="http://www.w3.org/1999/xlink" x="0px" y="0px"
	 viewBox="0 0 480 480" style="enable-background:new 0 0 480 480;" xml:space="preserve">
<g>
	<g>
		<g>
			<path d="M352,0H128c-22.08,0.026-39.974,17.92-40,40v400c0.026,22.08,17.92,39.974,40,40h224c22.08-0.026,39.974-17.92,40-40V40
				C391.974,17.92,374.08,0.026,352,0z M376,440c0,13.255-10.745,24-24,24H128c-13.255,0-24-10.745-24-24v-24h272V440z M376,400H104
				V80h272V400z M376,64H104V40c0-13.255,10.745-24,24-24h224c13.255,0,24,10.745,24,24V64z"/>
			<path d="M232,448h16c4.418,0,8-3.582,8-8s-3.582-8-8-8h-16c-4.418,0-8,3.582-8,8S227.582,448,232,448z"/>
			<path d="M152,32h-24c-4.418,0-8,3.582-8,8s3.582,8,8,8h24c4.418,0,8-3.582,8-8S156.418,32,152,32z"/>
			<path d="M240,360c66.274,0,120-53.726,120-120c-0.075-66.243-53.757-119.925-120-120c-66.274,0-120,53.726-120,120
				S173.726,360,240,360z M240,136c57.438,0,104,46.562,104,104c-0.066,57.41-46.59,103.934-104,104c-57.438,0-104-46.562-104-104
				S182.562,136,240,136z"/>
			<path d="M210.148,313.536c3.069,3.178,8.134,3.266,11.312,0.196c0.067-0.064,0.132-0.13,0.196-0.196l67.88-67.88
				c3.123-3.124,3.123-8.188,0-11.312l-67.88-67.88c-3.178-3.069-8.243-2.981-11.312,0.197c-2.994,3.1-2.994,8.015,0,11.115
				L272.568,240l-62.224,62.224C207.166,305.293,207.078,310.358,210.148,313.536z"/>
		</g>
	</g>
</g>
<g>
</g>
<g>
</g>
<g>
</g>
<g>
</g>
<g>
</g>
<g>
</g>
<g>
</g>
<g>
</g>
<g>
</g>
<g>
</g>
<g>
</g>
<g>
</g>
<g>
</g>
<g>
</g>
<g>
</g>
</svg>
